# Blender v2.91.0 OBJ File: ''
# www.blender.org
o rectangle-meshlab.026
v 0.000000 0.712229 0.000000
v 0.500000 0.712229 0.000000
v -0.500000 0.712229 0.000000
v 0.750000 0.712229 0.000000
v -0.750000 0.712229 0.000000
v 0.000000 0.212229 0.000000
v 0.500000 0.212229 0.000000
v -0.500000 0.212229 0.000000
v 0.750000 0.212229 0.000000
v -0.750000 0.212229 0.000000
v 0.000000 0.462229 0.000000
v 0.500000 0.462229 0.000000
v -0.500000 0.462229 0.000000
v 0.750000 0.462229 0.000000
v -0.750000 0.462229 0.000000
v 0.000000 -0.202251 -0.000000
v -0.500000 -0.200158 -0.000000
v 0.500000 -0.204343 -0.000000
v 0.750000 -0.205390 -0.000000
v -0.750000 -0.199112 -0.000000
v 0.000000 -0.699460 -0.000000
v 0.500000 -0.700158 -0.000000
v -0.500000 -0.698763 -0.000000
v -0.750000 -0.698414 -0.000000
v 0.750000 -0.700506 -0.000000
v 0.000000 -0.450855 -0.000000
v -0.500000 -0.449460 -0.000000
v 0.500000 -0.452250 -0.000000
v -0.750000 -0.448763 -0.000000
v 0.250000 -0.451553 -0.000000
v -0.250000 -0.450158 -0.000000
v 0.750000 -0.452948 -0.000000
vn 0.0000 -0.0000 1.0000
s 1
f 15//1 10//1 8//1 6//1 7//1 9//1 14//1 12//1 11//1 13//1
f 5//1 15//1 13//1 11//1 12//1 14//1 4//1 2//1 1//1 3//1
f 29//1 24//1 23//1 21//1 22//1 25//1 32//1 28//1 30//1 26//1 31//1 27//1
f 20//1 29//1 27//1 31//1 26//1 30//1 28//1 32//1 19//1 18//1 16//1 17//1
